HIERARCHY
ROOT Hips
{
	OFFSET -0.001795 -0.223333 0.028219
	CHANNELS 6 Xposition Yposition Zposition Zrotation Yrotation Xrotation 
	JOINT LeftUpLeg
	{
		OFFSET 0.069520 -0.091406 -0.006815
		CHANNELS 3 Zrotation Yrotation Xrotation
		JOINT LeftLeg
		{
			OFFSET 0.034277 -0.375199 -0.004496
			CHANNELS 3 Zrotation Yrotation Xrotation
			JOINT LeftFoot
			{
				OFFSET -0.013596 -0.397961 -0.043693
				CHANNELS 3 Zrotation Yrotation Xrotation
				JOINT LeftToe
				{
					OFFSET 0.026358 -0.055791 0.119288
					CHANNELS 3 Zrotation Yrotation Xrotation
					End Site
					{
						OFFSET 0.000000 0.000000 0.000000
					}
				}
			}
		}
	}
	JOINT RightUpLeg
	{
		OFFSET -0.067670 -0.090522 -0.004320
		CHANNELS 3 Zrotation Yrotation Xrotation
		JOINT RightLeg
		{
			OFFSET -0.038290 -0.382569 -0.008850
			CHANNELS 3 Zrotation Yrotation Xrotation
			JOINT RightFoot
			{
				OFFSET 0.015774 -0.398415 -0.042312
				CHANNELS 3 Zrotation Yrotation Xrotation
				JOINT RightToe
				{
					OFFSET -0.025372 -0.048144 0.123348
					CHANNELS 3 Zrotation Yrotation Xrotation
					End Site
					{
						OFFSET 0.000000 0.000000 0.000000
					}
				}
			}
		}
	}
	JOINT Spine
	{
		OFFSET -0.002533 0.108963 -0.026696
		CHANNELS 3 Zrotation Yrotation Xrotation
		JOINT Spine1
		{
			OFFSET 0.005487 0.135180 0.001092
			CHANNELS 3 Zrotation Yrotation Xrotation
			JOINT Spine2
			{
				OFFSET 0.001457 0.052922 0.025425
				CHANNELS 3 Zrotation Yrotation Xrotation
				JOINT Neck
				{
					OFFSET -0.002778 0.213870 -0.042857
					CHANNELS 3 Zrotation Yrotation Xrotation
					JOINT Head
					{
						OFFSET 0.005152 0.064970 0.051349
						CHANNELS 3 Zrotation Yrotation Xrotation
						End Site
						{
							OFFSET 0.000000 0.000000 0.000000
						}
					}
				}
				JOINT LeftShoulder
				{
					OFFSET 0.078845 0.121749 -0.034090
					CHANNELS 3 Zrotation Yrotation Xrotation
					JOINT LeftArm
					{
						OFFSET 0.090977 0.030469 -0.008868
						CHANNELS 3 Zrotation Yrotation Xrotation
						JOINT LeftForeArm
						{
							OFFSET 0.259612 -0.012772 -0.027456
							CHANNELS 3 Zrotation Yrotation Xrotation
							JOINT LeftHand
							{
								OFFSET 0.249234 0.008986 -0.001171
								CHANNELS 3 Zrotation Yrotation Xrotation
								End Site
								{
									OFFSET 0.000000 0.000000 0.000000
								}
							}
						}
					}
				}
				JOINT RightShoulder
				{
					OFFSET -0.081759 0.118833 -0.038615
					CHANNELS 3 Zrotation Yrotation Xrotation
					JOINT RightArm
					{
						OFFSET -0.096012 0.032551 -0.009143
						CHANNELS 3 Zrotation Yrotation Xrotation
						JOINT RightForeArm
						{
							OFFSET -0.253742 -0.013329 -0.021401
							CHANNELS 3 Zrotation Yrotation Xrotation
							JOINT RightHand
							{
								OFFSET -0.255298 0.007772 -0.005559
								CHANNELS 3 Zrotation Yrotation Xrotation
								End Site
								{
									OFFSET 0.000000 0.000000 0.000000
								}
							}
						}
					}
				}
			}
		}
	}
}
MOTION
Frames: 10
Frame Time: 0.050000
-0.101502 0.933295 0.695053 -0.726766 -4.331780 -1.298634 4.182506 -0.047095 -0.890752 -2.838335 0.331597 1.195808 5.876381 13.021218 5.220199 0.000000 0.000000 0.000000 0.805523 0.405507 -4.038718 0.944067 0.233991 8.850553 -7.160965 -17.772780 3.583874 0.000000 0.000000 0.000000 6.256120 -0.682791 7.229533 0.296851 -0.191982 3.100072 -7.494078 5.730078 7.143807 8.591882 -3.560331 -16.562778 0.000000 0.000000 0.000000 -17.199568 -18.052593 6.484535 -42.531091 -25.664669 3.874969 6.371037 -83.454527 -3.560165 0.000000 0.000000 0.000000 16.691840 8.513692 4.124968 49.283023 25.912928 5.341795 -14.947064 84.918909 -7.153936 0.000000 0.000000 0.000000 
-0.101656 0.933447 0.694599 -0.695586 -4.344931 -1.186473 4.016304 -0.054901 -0.975465 -2.797597 0.326195 1.202883 6.041847 13.337481 5.346944 0.000000 0.000000 0.000000 0.809466 0.439727 -4.359524 0.953565 0.250115 9.272873 -7.185474 -17.811745 3.443026 0.000000 0.000000 0.000000 6.266198 -0.699734 7.383211 0.256698 -0.167698 2.867560 -7.356943 5.736836 7.303970 8.351741 -3.398003 -16.673877 0.000000 0.000000 0.000000 -17.136364 -17.891167 6.418655 -42.863713 -25.131076 3.703987 1.747197 -83.327358 0.598701 0.000000 0.000000 0.000000 16.867394 8.333054 4.036617 49.652324 25.450248 5.182233 -14.999694 84.927291 -7.182883 0.000000 0.000000 0.000000 
-0.101484 0.933643 0.694313 -0.640356 -4.298880 -1.033064 3.801742 -0.072923 -1.204711 -2.730368 0.316094 1.320700 6.065434 13.369622 5.242280 0.000000 0.000000 0.000000 0.627343 0.463594 -4.606333 1.088826 0.236466 9.549193 -7.213011 -17.857599 3.293461 0.000000 0.000000 0.000000 6.364045 -0.715962 7.450349 0.242104 -0.158540 2.738654 -7.247051 5.680826 7.339854 8.192764 -3.281462 -16.805515 0.000000 0.000000 0.000000 -17.296614 -17.809815 6.400398 -43.079243 -24.872770 3.635078 -1.523120 -83.107897 3.530497 0.000000 0.000000 0.000000 17.031897 8.262809 3.999332 49.739236 24.959345 4.972246 -14.779992 85.377996 -7.047336 0.000000 0.000000 0.000000 
-0.101166 0.933764 0.694125 -0.548190 -4.170068 -0.923459 3.632899 -0.088544 -1.393466 -2.706812 0.310951 1.470091 6.054043 13.340129 5.142694 0.000000 0.000000 0.000000 0.435813 0.487185 -4.855172 1.154203 0.240398 9.988236 -7.119919 -17.636423 3.028961 0.000000 0.000000 0.000000 6.473500 -0.718487 7.363418 0.179109 -0.126340 2.666137 -7.215220 5.613772 7.426988 7.765317 -3.002783 -16.900902 0.000000 0.000000 0.000000 -17.460879 -17.829065 6.426544 -43.308014 -24.739221 3.607632 -6.378348 -83.408926 7.903013 0.000000 0.000000 0.000000 17.102286 8.045445 3.884837 49.630162 24.041031 4.544504 -14.115159 86.794377 -6.604711 0.000000 0.000000 0.000000 
-0.100803 0.933803 0.694079 -0.485908 -4.250283 -0.760336 3.415806 -0.111067 -1.690773 -2.661683 0.302903 1.804186 6.021560 13.270110 5.074718 0.000000 0.000000 0.000000 0.328134 0.506530 -5.060968 1.223585 0.244202 10.371554 -7.229463 -17.851927 2.858265 0.000000 0.000000 0.000000 6.664653 -0.711399 7.121023 0.136647 -0.105174 2.797960 -7.385449 5.638446 7.266950 7.381624 -2.766677 -16.843063 0.000000 0.000000 0.000000 -17.424928 -17.791230 6.394117 -43.507200 -24.928672 3.714559 -7.654770 -83.843613 9.087982 0.000000 0.000000 0.000000 17.045844 7.722403 3.712744 49.548262 22.968828 4.082165 4.092276 88.560335 10.923783 0.000000 0.000000 0.000000 
-0.100536 0.933791 0.694216 -0.441421 -4.063513 -0.659526 3.233776 -0.134249 -1.977064 -2.721213 0.306941 2.200697 5.759992 12.744977 4.682994 0.000000 0.000000 0.000000 0.101749 0.518579 -5.212740 1.386351 0.225829 10.776809 -7.269963 -17.925906 2.665587 0.000000 0.000000 0.000000 6.923667 -0.731534 7.119618 0.038583 -0.052500 2.459697 -7.516416 5.655949 7.654150 7.167116 -2.604995 -17.000674 0.000000 0.000000 0.000000 -17.879780 -18.102688 6.560756 -43.277224 -25.056281 3.718941 -7.314537 -84.637358 8.915157 0.000000 0.000000 0.000000 17.297254 7.188229 3.477975 49.156906 21.783500 3.467587 105.010480 88.794904 111.051340 0.000000 0.000000 0.000000 
-0.100324 0.933442 0.694443 -0.435603 -3.840956 -0.551209 3.250534 -0.147283 -2.149579 -2.877970 0.326239 2.335551 5.742014 12.724438 4.757402 0.000000 0.000000 0.000000 0.039123 0.523555 -5.269747 1.499955 0.210785 11.071052 -7.331553 -18.050601 2.505311 0.000000 0.000000 0.000000 7.165961 -0.728220 6.884209 -0.020952 -0.027448 2.725970 -7.777679 5.488681 7.556175 6.968330 -2.485429 -16.961764 0.000000 0.000000 0.000000 -17.916935 -18.141885 6.578426 -43.425274 -25.541629 3.923784 -3.444890 -85.192579 5.439283 0.000000 0.000000 0.000000 16.863430 6.605301 3.143086 49.444359 20.467139 2.971966 130.159454 86.884804 135.129662 0.000000 0.000000 0.000000 
-0.100070 0.933238 0.694564 -0.431174 -3.686477 -0.466718 3.067824 -0.161589 -2.296025 -2.856579 0.321622 2.390147 5.588197 12.436579 4.714709 0.000000 0.000000 0.000000 0.015730 0.528265 -5.318604 1.535404 0.208708 11.284517 -7.419593 -18.229508 2.335479 0.000000 0.000000 0.000000 7.331112 -0.726792 6.733848 -0.113740 0.017121 2.842097 -7.958528 5.433507 7.583075 6.907038 -2.435881 -16.997097 0.000000 0.000000 0.000000 -18.342967 -18.509448 6.775057 -43.531014 -25.571387 3.964472 2.936362 -85.810716 -0.436842 0.000000 0.000000 0.000000 16.698019 6.187727 2.928452 49.316436 19.482688 2.542619 132.929099 85.923387 137.376057 0.000000 0.000000 0.000000 
-0.099718 0.932973 0.694344 -0.407957 -3.641642 -0.337290 3.065005 -0.171619 -2.428789 -2.910947 0.329177 2.312681 5.505553 12.299817 4.834585 0.000000 0.000000 0.000000 -0.043277 0.545409 -5.498911 1.538199 0.218383 11.584485 -7.432822 -18.253286 2.236495 0.000000 0.000000 0.000000 7.524201 -0.733570 6.647706 -0.310787 0.119347 2.681876 -8.067088 5.225863 7.703937 6.755050 -2.335554 -17.175944 0.000000 0.000000 0.000000 -18.891284 -18.511878 6.856536 -43.602563 -26.051361 4.140929 9.526671 -85.763434 -6.442683 0.000000 0.000000 0.000000 16.299243 6.083552 2.818832 49.373460 18.408959 2.108248 133.892760 84.978535 137.650659 0.000000 0.000000 0.000000 
-0.099277 0.932961 0.693644 -0.407732 -3.609319 -0.087077 2.970337 -0.198242 -2.772968 -2.874958 0.323957 2.257061 5.494433 12.302470 5.012172 0.000000 0.000000 0.000000 -0.110371 0.567248 -5.728813 1.505872 0.225980 11.628472 -7.407788 -18.181220 1.992336 0.000000 0.000000 0.000000 7.580922 -0.716124 6.375786 -0.352207 0.139038 2.824670 -8.313103 5.318199 7.730395 6.912096 -2.393013 -17.311022 0.000000 0.000000 0.000000 -19.021042 -19.066164 7.123858 -44.071307 -26.668978 4.444105 20.004315 -85.394747 -16.117095 0.000000 0.000000 0.000000 15.899514 5.940869 2.764132 49.398327 18.170163 2.018316 139.454470 84.962002 143.720156 0.000000 0.000000 0.000000 
